<?xml version="1.0" encoding="utf-8"?>
<!-- Generator: Adobe Illustrator 26.0.3, SVG Export Plug-In . SVG Version: 6.00 Build 0)  -->
<svg version="1.1" id="Layer_1" xmlns="http://www.w3.org/2000/svg" xmlns:xlink="http://www.w3.org/1999/xlink" x="0px" y="0px"
	 width="280.7px" height="216.9px" viewBox="0 0 280.7 216.9" enable-background="new 0 0 280.7 216.9" xml:space="preserve">
<path fill="#D1D0B9" d="M193.4,17.6H86.6c-2.9,0-5.2,2.3-5.2,5.2h117.2C198.5,20,196.2,17.6,193.4,17.6z"/>
<path fill="#EBEADD" d="M86.6,204.5c-2.9,0-5.2-2.3-5.2-5.2v-175c0-2.9,2.3-5.2,5.2-5.2h106.8c2.9,0,5.2,2.3,5.2,5.2v175
	c0,2.9-2.3,5.2-5.2,5.2H86.6z"/>
<g>
	<g>
		<g>
			<path fill="none" stroke="#A09E97" stroke-width="0.3" stroke-miterlimit="10" d="M139.9,185.2c0.2,0.3,0.4,0.5,0.7,0.6l0,0l0,0
				c0,0,0.1,0,0.1,0.1c0,0,0.1,0,0.1,0.1c0.1,0.1,0.2,0.2,0.3,0.4l0,0l0,0c0.1,0.2,0.1,0.4,0.1,0.6c0,0.1,0,0.1,0,0.2c0,0,0,0,0,0
				l0,0l0,0c0,0,0,0,0,0c0,0.1,0,0.1,0,0.2c0,0.2-0.1,0.4-0.2,0.6l0,0l0,0c-0.1,0.2-0.2,0.3-0.3,0.4c0,0-0.1,0-0.1,0.1
				c0,0-0.1,0-0.1,0.1l0,0l0,0c-0.3,0.1-0.5,0.3-0.7,0.6c-0.2-0.3-0.4-0.5-0.7-0.6l0,0l0,0c0,0-0.1,0-0.1-0.1c0,0-0.1,0-0.1-0.1
				c-0.1-0.1-0.2-0.2-0.3-0.4l0,0l0,0c-0.1-0.2-0.1-0.4-0.2-0.7c0,0,0-0.1,0-0.1c0,0,0,0,0,0l0,0l0,0c0,0,0,0,0,0c0-0.1,0-0.1,0-0.2
				c0-0.2,0.1-0.4,0.1-0.6l0,0l0,0c0.1-0.2,0.2-0.3,0.3-0.4c0,0,0.1,0,0.1-0.1c0,0,0.1,0,0.1-0.1l0,0l0,0
				C139.5,185.7,139.8,185.5,139.9,185.2L139.9,185.2z"/>
			<ellipse fill="none" stroke="#A09E97" stroke-width="0.3" stroke-miterlimit="10" cx="139.9" cy="183.2" rx="0.9" ry="1.3"/>
			<ellipse fill="none" stroke="#A09E97" stroke-width="0.3" stroke-miterlimit="10" cx="139.9" cy="191.2" rx="0.9" ry="1.3"/>
		</g>
		<g>
			<ellipse fill="none" stroke="#A09E97" stroke-width="0.3" stroke-miterlimit="10" cx="136.7" cy="183.2" rx="0.9" ry="1.3"/>
			<ellipse fill="none" stroke="#A09E97" stroke-width="0.3" stroke-miterlimit="10" cx="136.7" cy="191.2" rx="0.9" ry="1.3"/>
			<path fill="none" stroke="#A09E97" stroke-width="0.3" stroke-miterlimit="10" d="M136.7,185.2c0.2,0.3,0.4,0.5,0.7,0.6l0,0l0,0
				c0,0,0.1,0,0.1,0.1c0,0,0.1,0,0.1,0.1c0.1,0.1,0.2,0.2,0.3,0.4l0,0l0,0c0.1,0.2,0.1,0.4,0.1,0.6c0,0.1,0,0.1,0,0.2c0,0,0,0,0,0
				l0,0l0,0c0,0,0,0,0,0c0,0.1,0,0.1,0,0.2c0,0.2-0.1,0.4-0.2,0.6l0,0l0,0c-0.1,0.2-0.2,0.3-0.3,0.4c0,0-0.1,0-0.1,0.1
				c0,0-0.1,0-0.1,0.1l0,0l0,0c-0.3,0.1-0.5,0.3-0.7,0.6c-0.2-0.3-0.4-0.5-0.7-0.6l0,0l0,0c0,0-0.1,0-0.1-0.1c0,0-0.1,0-0.1-0.1
				c-0.1-0.1-0.2-0.2-0.3-0.4l0,0l0,0c-0.1-0.2-0.1-0.4-0.2-0.7c0,0,0-0.1,0-0.1c0,0,0,0,0,0l0,0l0,0c0,0,0,0,0,0c0-0.1,0-0.1,0-0.2
				c0-0.2,0.1-0.4,0.1-0.6l0,0l0,0c0.1-0.2,0.2-0.3,0.3-0.4c0,0,0.1,0,0.1-0.1c0,0,0.1,0,0.1-0.1l0,0l0,0
				C136.3,185.7,136.5,185.5,136.7,185.2L136.7,185.2z"/>
		</g>
		<g>
			<ellipse fill="none" stroke="#A09E97" stroke-width="0.3" stroke-miterlimit="10" cx="143.3" cy="183.2" rx="0.9" ry="1.3"/>
			<ellipse fill="none" stroke="#A09E97" stroke-width="0.3" stroke-miterlimit="10" cx="143.3" cy="191.2" rx="0.9" ry="1.3"/>
			<path fill="none" stroke="#A09E97" stroke-width="0.3" stroke-miterlimit="10" d="M143.3,185.2c0.2,0.3,0.4,0.5,0.7,0.6l0,0l0,0
				c0,0,0.1,0,0.1,0.1c0,0,0.1,0,0.1,0.1c0.1,0.1,0.2,0.2,0.3,0.4l0,0l0,0c0.1,0.2,0.1,0.4,0.1,0.6c0,0.1,0,0.1,0,0.2c0,0,0,0,0,0
				l0,0l0,0c0,0,0,0,0,0c0,0.1,0,0.1,0,0.2c0,0.2-0.1,0.4-0.2,0.6l0,0l0,0c-0.1,0.2-0.2,0.3-0.3,0.4c0,0-0.1,0-0.1,0.1
				c0,0-0.1,0-0.1,0.1l0,0l0,0c-0.3,0.1-0.5,0.3-0.7,0.6c-0.2-0.3-0.4-0.5-0.7-0.6l0,0l0,0c0,0-0.1,0-0.1-0.1c0,0-0.1,0-0.1-0.1
				c-0.1-0.1-0.2-0.2-0.3-0.4l0,0l0,0c-0.1-0.2-0.1-0.4-0.2-0.7c0,0,0-0.1,0-0.1c0,0,0,0,0,0l0,0l0,0c0,0,0,0,0,0c0-0.1,0-0.1,0-0.2
				c0-0.2,0.1-0.4,0.1-0.6l0,0l0,0c0.1-0.2,0.2-0.3,0.3-0.4c0,0,0.1,0,0.1-0.1c0,0,0.1,0,0.1-0.1l0,0l0,0
				C142.8,185.7,143.1,185.5,143.3,185.2L143.3,185.2z"/>
		</g>
	</g>
</g>
<g>
	<rect x="87.5" y="18.5" fill="none" width="93.5" height="80.4"/>
	<text transform="matrix(1 0 0 1 87.4916 35.7166)"><tspan x="0" y="0" fill="#A09E97" font-family="'ArialMT'" font-size="4px">FWB </tspan><tspan x="0" y="9.6" fill="#A09E97" font-family="'ArialMT'" font-size="4px">GARMENT COLLECTION </tspan><tspan x="0" y="14.4" fill="#A09E97" font-family="'ArialMT'" font-size="4px">Design Split CONTRACT</tspan><tspan x="0" y="19.2" fill="#A09E97" font-family="'ArialMT'" font-size="4px">PROTOTYPE </tspan><tspan x="0" y="28.8" fill="#A09E97" font-family="'ArialMT'" font-size="4px">HIBISCUS.TECH </tspan><tspan x="0" y="38.4" fill="#A09E97" font-family="'ArialMT'" font-size="4px">15745152</tspan></text>
</g>
</svg>
